<svg xmlns="http://www.w3.org/2000/svg" viewBox="0 0 493.08 706.94"><defs><style>.e76cd2db-714d-46be-8558-b1f59f0b75d1,.f76b74fd-171a-4da2-b136-08ab6099f69f{fill:#9e1460;}.e76cd2db-714d-46be-8558-b1f59f0b75d1{font-size:60px;font-family:Orbitron-Bold, Orbitron;font-weight:700;}.a8eccfec-f4b8-4fe4-a22c-b2c544e9f852{letter-spacing:-0.04em;}.bf4f6557-52d8-414e-9220-1be120087bd2{letter-spacing:-0.02em;}</style></defs><g id="bb264037-b75f-45cf-a07c-931bc3dd9db5" data-name="Capa 5"><path class="f76b74fd-171a-4da2-b136-08ab6099f69f" d="M441.21,316.78v37a8.87,8.87,0,0,1-1.7,5.21h0L270.61,590.52a12.52,12.52,0,0,1-20.52-.41L95.69,359.21l-.21-.32A8.83,8.83,0,0,1,94,354V316.66c22.37,16.14,59.81,28.78,105.19,35.21-.12,1.53-.18,3.07-.18,4.63a60.5,60.5,0,0,0,121,0c0-.88,0-1.76-.06-2.63C372.48,348.36,416.19,334.74,441.21,316.78Z" transform="translate(-14.39 -42.79)"/><ellipse class="f76b74fd-171a-4da2-b136-08ab6099f69f" cx="245.61" cy="578.71" rx="49" ry="10.5"/></g><g id="ad97dbaf-9dd5-45e1-a21b-9c8d26c5d536" data-name="CatovaTech"><g id="b6caeb25-84ad-4311-a5ad-6aecaba4b2bc" data-name="Barras"><path class="f76b74fd-171a-4da2-b136-08ab6099f69f" d="M176.44,191.67V333.52c-20.67-3.74-38.73-8.69-53.15-14.54V191.67Z" transform="translate(-14.39 -42.79)"/><path class="f76b74fd-171a-4da2-b136-08ab6099f69f" d="M235.43,143.31V341.85a453.84,453.84,0,0,1-53.15-6.29V143.31Z" transform="translate(-14.39 -42.79)"/><path class="f76b74fd-171a-4da2-b136-08ab6099f69f" d="M294.86,91.28,294,342.37q-12.81.64-26.12.61c-9.19,0-18.22-.32-27-.85l.77-251.08L267.2,77.56Z" transform="translate(-14.39 -42.79)"/></g><g id="a56a37d1-ccdb-4af3-af49-53fb7376051d" data-name="VentanaPlus"><rect class="f76b74fd-171a-4da2-b136-08ab6099f69f" x="319.49" y="152.53" width="27.12" height="26.68"/><rect class="f76b74fd-171a-4da2-b136-08ab6099f69f" x="319.9" y="187.8" width="27.12" height="26.68"/><rect class="f76b74fd-171a-4da2-b136-08ab6099f69f" x="353.7" y="152.17" width="27.12" height="26.68"/><rect class="f76b74fd-171a-4da2-b136-08ab6099f69f" x="354.11" y="187.44" width="27.12" height="26.68"/></g><path class="f76b74fd-171a-4da2-b136-08ab6099f69f" d="M469.93,599.91c0,41.26-93.78,74.7-209.46,74.7S51,641.17,51,599.91a27.81,27.81,0,0,1,1-7.24c8,38.63,98.49,69.09,208.89,69.09,108.84,0,198.29-29.61,208.49-67.47A28,28,0,0,1,469.93,599.91Z" transform="translate(-14.39 -42.79)"/><path class="f76b74fd-171a-4da2-b136-08ab6099f69f" d="M119.3,316.66l-1.08-164.31L266.74,70,416,150.55l1.09,165.81c10.54-5.73,18.86-12.09,24.49-18.9L440.5,136.77l-173.76-94L94,138.87l1,159.55C100.77,305,109,311.12,119.3,316.66Z" transform="translate(-14.39 -42.79)"/></g><g id="b3b62c63-5c45-41e3-86f8-b0611786dda3" data-name="Capa 4"><text class="e76cd2db-714d-46be-8558-b1f59f0b75d1" transform="translate(0 693.14)">CAT<tspan class="a8eccfec-f4b8-4fe4-a22c-b2c544e9f852" x="145.02" y="0">O</tspan><tspan class="bf4f6557-52d8-414e-9220-1be120087bd2" x="192.12" y="0">V</tspan><tspan x="251.04" y="0">ATECH</tspan></text></g></svg>