<svg id="b16b8e43-6ce2-480d-8822-61efecc1e3b2" data-name="Capa 1" xmlns="http://www.w3.org/2000/svg" viewBox="0 0 463.89 691.76"><defs><style>.e27557cd-7cf9-4675-954d-804195289163{fill:#9e1460;}</style></defs><g id="adcac8a3-3e71-4862-b17c-fc0889ee1f6b" data-name="bb264037-b75f-45cf-a07c-931bc3dd9db5"><path class="e27557cd-7cf9-4675-954d-804195289163" d="M441.63,303V343.5a9.65,9.65,0,0,1-1.88,5.71h0l-187,253.48a14,14,0,0,1-19.37,3,13.56,13.56,0,0,1-3.35-3.45L59,349.45l-.24-.35a9.75,9.75,0,0,1-1.64-5.36V302.86c24.78,17.67,66.23,31.51,116.48,38.55-.13,1.68-.19,3.36-.19,5.07,0,36.58,30,66.24,67,66.24s67-29.66,67-66.24c0-1,0-1.93-.06-2.88C365.52,337.57,413.93,322.66,441.63,303Z" transform="translate(-9.54 -3)"/><ellipse class="e27557cd-7cf9-4675-954d-804195289163" cx="231.43" cy="633.61" rx="54.26" ry="11.5"/></g><g id="f2fd5b86-8af8-48b3-8087-8c1d6a5e7f51" data-name="ad97dbaf-9dd5-45e1-a21b-9c8d26c5d536"><g id="a33609ee-d425-4524-b4d7-a1b5a482cda3" data-name="b6caeb25-84ad-4311-a5ad-6aecaba4b2bc"><path class="e27557cd-7cf9-4675-954d-804195289163" d="M148.44,166v155.3c-22.89-4.09-42.88-9.51-58.85-15.92V166Z" transform="translate(-9.54 -3)"/><path class="e27557cd-7cf9-4675-954d-804195289163" d="M213.76,113.07V330.44a510.12,510.12,0,0,1-58.85-6.88V113.07Z" transform="translate(-9.54 -3)"/><path class="e27557cd-7cf9-4675-954d-804195289163" d="M279.57,56.11,278.62,331q-14.19.71-28.92.67c-10.18,0-20.18-.35-29.9-.93l.85-274.89,28.29-14.77Z" transform="translate(-9.54 -3)"/></g><g id="b0d866ae-70fd-465f-b0f0-fd064dbab5ab" data-name="a56a37d1-ccdb-4af3-af49-53fb7376051d"><rect class="e27557cd-7cf9-4675-954d-804195289163" x="313.24" y="167.02" width="30.03" height="29.21"/><rect class="e27557cd-7cf9-4675-954d-804195289163" x="313.7" y="205.63" width="30.03" height="29.21"/><rect class="e27557cd-7cf9-4675-954d-804195289163" x="351.12" y="166.62" width="30.03" height="29.21"/><rect class="e27557cd-7cf9-4675-954d-804195289163" x="351.58" y="205.24" width="30.03" height="29.21"/></g><path class="e27557cd-7cf9-4675-954d-804195289163" d="M473.43,613c0,45.18-103.84,81.79-231.94,81.79S9.54,658.15,9.54,613a29.87,29.87,0,0,1,1.11-7.92c8.86,42.29,109.06,75.64,231.31,75.64,120.52,0,219.57-32.42,230.86-73.87A29.63,29.63,0,0,1,473.43,613Z" transform="translate(-9.54 -3)"/><path class="e27557cd-7cf9-4675-954d-804195289163" d="M85.17,302.86,84,123,248.44,32.81,413.72,121l1.2,181.53c11.67-6.27,20.89-13.23,27.12-20.69l-1.19-175.93L248.44,3,57.15,108.21l1.11,174.68C64.65,290.1,73.76,296.8,85.17,302.86Z" transform="translate(-9.54 -3)"/></g></svg>